<?xml version="1.0" standalone="no"?>
<!DOCTYPE svg PUBLIC "-//W3C//DTD SVG 20010904//EN"
 "http://www.w3.org/TR/2001/REC-SVG-20010904/DTD/svg10.dtd">
<svg version="1.0" xmlns="http://www.w3.org/2000/svg"
 width="608.000000pt" height="527.000000pt" viewBox="0 0 608.000000 527.000000"
 preserveAspectRatio="xMidYMid meet">

<g transform="translate(0.000000,527.000000) scale(0.100000,-0.100000)"
fill="#000000" stroke="none">
<path d="M2420 5253 c-221 -21 -487 -79 -670 -146 -374 -137 -688 -336 -965
-612 -1032 -1029 -1032 -2693 -1 -3720 203 -202 400 -347 646 -473 249 -129
486 -208 770 -259 178 -31 508 -42 696 -24 845 85 1593 569 2023 1309 l42 72
102 0 c593 1 1073 537 1008 1126 -51 472 -395 839 -861 917 l-74 12 -42 110
c-142 375 -342 677 -637 961 -496 479 -1145 739 -1832 732 -93 0 -186 -3 -205
-5z m530 -88 c582 -72 1107 -335 1520 -762 194 -200 324 -382 445 -623 61
-122 140 -308 133 -315 -1 -2 -45 -8 -95 -14 -449 -50 -792 -345 -905 -775
-26 -103 -35 -297 -18 -404 64 -402 352 -726 744 -837 50 -14 92 -27 94 -29
11 -12 -137 -236 -246 -373 -327 -410 -812 -726 -1326 -863 -348 -93 -733
-110 -1087 -50 -795 136 -1476 639 -1844 1362 -144 282 -223 547 -261 875 -20
167 -14 492 11 653 69 448 252 865 535 1220 412 517 1039 863 1700 939 130 15
465 12 600 -4z m2329 -1805 c404 -99 702 -459 728 -879 35 -583 -470 -1070
-1049 -1010 -402 41 -726 311 -839 700 -26 92 -38 327 -20 422 78 408 400 723
806 787 91 14 277 4 374 -20z"/>
<path d="M2466 4379 c-45 -47 -106 -116 -135 -154 -42 -56 -61 -72 -104 -89
-30 -12 -52 -27 -52 -36 0 -14 5 -15 50 -2 19 5 19 4 4 -19 -46 -70 -80 -141
-75 -155 9 -24 20 -11 86 100 l62 103 56 17 c79 22 98 24 94 7 -1 -7 -10 -58
-20 -112 -15 -93 -15 -100 0 -116 21 -20 22 -18 38 92 6 44 16 99 22 123 9 38
13 42 40 42 22 0 29 4 26 17 -2 9 -13 20 -25 23 l-22 5 34 105 c31 93 33 106
20 120 -14 13 -25 5 -99 -71z m26 -89 l-27 -84 -54 -13 c-29 -8 -56 -12 -59
-9 -2 3 8 22 24 43 34 46 136 154 140 150 2 -2 -9 -41 -24 -87z"/>
<path d="M2716 4423 c-47 -93 -116 -359 -116 -447 0 -86 33 -112 68 -53 10 17
53 91 96 162 42 72 110 177 151 234 70 98 83 127 50 115 -28 -11 -192 -251
-281 -409 l-39 -70 -3 45 c-3 54 33 200 82 331 20 53 36 102 36 108 0 22 -30
11 -44 -16z"/>
<path d="M3163 4435 c-111 -48 -283 -301 -283 -415 0 -152 149 -137 261 26 47
68 33 82 -15 16 -77 -104 -157 -140 -192 -87 -23 35 -11 98 36 193 58 116 190
252 244 252 42 0 -9 -120 -64 -150 -22 -12 -27 -35 -9 -46 27 -16 119 116 119
172 0 23 -29 54 -51 54 -8 -1 -29 -7 -46 -15z"/>
<path d="M2636 3149 c-14 -17 -26 -36 -26 -43 0 -19 -31 -43 -65 -52 -88 -21
-158 -91 -196 -194 l-20 -57 -34 16 c-19 9 -34 20 -35 24 0 5 -9 22 -21 38
-13 19 -19 39 -16 55 2 13 0 24 -4 24 -15 0 -10 -65 6 -86 20 -26 19 -34 -6
-34 -34 0 -78 38 -105 92 -14 27 -28 48 -31 45 -9 -9 15 -68 42 -103 l24 -32
-22 -6 c-46 -11 -100 11 -144 59 -51 56 -58 46 -8 -12 44 -52 69 -61 185 -66
145 -7 184 -36 120 -91 -32 -26 -51 -31 -163 -41 -79 -8 -121 -23 -160 -59
-31 -29 -36 -72 -9 -93 12 -10 14 -16 5 -19 -20 -9 -15 -28 15 -57 45 -43 96
-58 251 -71 155 -14 194 -26 230 -72 24 -31 36 -83 26 -121 -3 -15 -40 -61
-82 -102 -119 -116 -123 -125 -123 -246 0 -216 -37 -424 -98 -556 -72 -154
-133 -324 -120 -334 7 -5 72 -25 83 -25 6 0 18 26 25 57 18 84 57 206 95 298
55 134 76 255 84 473 l6 193 79 72 c119 108 155 211 107 305 -41 80 -108 111
-270 123 -181 14 -198 17 -236 51 -41 35 -44 57 -12 93 21 25 31 28 128 35
107 7 149 21 183 59 15 16 31 21 73 21 30 0 53 -4 53 -10 0 -17 48 -60 66 -60
12 0 6 11 -22 35 l-39 36 34 -7 c54 -10 119 -43 126 -63 7 -24 56 -47 120 -56
28 -3 60 -13 73 -21 13 -9 28 -14 35 -11 23 7 -41 38 -109 51 -81 16 -104 24
-104 38 0 6 8 7 18 3 9 -4 57 -10 105 -13 125 -7 197 24 197 82 0 23 -17 20
-25 -4 -11 -34 -63 -53 -145 -54 -73 0 -180 26 -180 44 0 11 78 74 117 94 23
11 44 14 73 10 27 -4 40 -3 40 5 0 7 -21 11 -57 11 -53 0 -61 -3 -129 -55
l-73 -56 -56 16 c-46 14 -54 19 -45 30 7 8 20 17 31 20 27 9 65 85 42 85 -5 0
-15 -15 -23 -33 -8 -17 -28 -38 -43 -45 -16 -8 -31 -20 -34 -28 -3 -9 -20 -14
-43 -14 l-37 0 12 68 c22 132 104 232 177 218 18 -3 51 -9 73 -13 22 -3 53
-15 70 -25 16 -10 46 -17 65 -17 l35 1 -37 7 c-20 4 -45 14 -54 22 -16 13 -14
15 17 20 23 4 9 7 -46 8 -99 2 -82 17 31 27 79 7 114 17 114 34 0 5 -12 2 -27
-6 -41 -20 -50 -17 -25 9 29 31 28 46 0 20 -13 -11 -36 -25 -53 -31 -31 -11
-105 -23 -105 -18 0 17 36 83 53 97 12 10 17 18 10 19 -6 0 -23 -14 -37 -31z"/>
<path d="M1130 3029 c-70 -14 -184 -75 -236 -127 -92 -91 -138 -236 -116 -365
25 -144 110 -260 239 -324 127 -63 302 -57 421 14 71 43 104 74 146 138 136
207 67 489 -148 610 -100 56 -203 74 -306 54z m237 -98 c55 -24 148 -112 176
-167 l16 -31 -52 -50 c-60 -58 -241 -197 -310 -237 -41 -24 -225 -96 -246 -96
-16 0 -70 89 -91 151 -44 128 -4 268 105 368 80 72 137 92 255 88 72 -3 108
-9 147 -26z m215 -287 c7 -58 -10 -150 -36 -202 -33 -64 -106 -136 -175 -170
-50 -24 -66 -27 -161 -27 -95 1 -110 3 -157 28 -29 15 -53 31 -53 36 0 4 19
13 43 20 72 22 199 86 272 138 69 50 192 152 229 193 27 28 33 25 38 -16z"/>
<path d="M1280 2693 c-34 -13 -52 -43 -42 -71 9 -27 42 -44 42 -22 0 7 14 25
30 40 44 41 25 73 -30 53z"/>
<path d="M1160 2554 c0 -15 -83 -58 -163 -84 -26 -8 -36 -15 -29 -22 6 -6 8
-17 5 -25 -5 -12 -1 -14 18 -8 44 14 94 36 139 63 25 14 52 25 61 24 14 -2 39
35 39 58 0 6 -16 10 -35 10 -25 0 -35 -4 -35 -16z"/>
<path d="M5120 3100 l0 -40 40 0 40 0 0 40 0 40 -40 0 -40 0 0 -40z"/>
<path d="M5040 3040 c0 -12 9 -24 23 -29 25 -10 51 -37 60 -63 5 -15 0 -18
-38 -18 l-45 0 0 -50 c0 -42 3 -50 18 -50 24 0 60 35 68 65 4 16 13 25 26 25
18 0 20 -4 14 -32 -8 -41 -49 -84 -93 -99 -55 -18 -37 -29 47 -29 l80 0 0 85
c0 47 -3 85 -8 85 -4 0 -17 22 -30 50 -23 51 -60 80 -102 80 -13 0 -20 -7 -20
-20z"/>
<path d="M4714 2644 c-36 -18 -47 -51 -32 -96 18 -52 73 -64 113 -23 64 63 -1
159 -81 119z m57 -4 c39 -21 16 -130 -27 -130 -20 0 -44 41 -44 77 0 22 7 37
22 47 27 19 24 19 49 6z"/>
<path d="M4894 2646 c-93 -41 -25 -177 70 -140 22 8 22 74 1 74 -10 0 -15 -11
-15 -35 0 -39 -13 -44 -48 -19 -16 11 -22 25 -22 53 0 45 18 64 61 64 19 0 25
3 17 9 -17 11 -28 10 -64 -6z"/>
<path d="M5036 2585 c-16 -42 -26 -78 -22 -82 3 -4 12 8 18 25 10 26 18 32 41
32 22 0 30 -6 38 -30 12 -33 29 -41 28 -12 -1 34 -44 137 -59 140 -11 2 -24
-20 -44 -73z m58 8 c6 -20 4 -23 -18 -23 -29 0 -31 6 -15 47 11 30 19 24 33
-24z"/>
<path d="M5365 2650 c-15 -24 -53 -150 -45 -150 4 0 13 14 19 30 8 24 16 30
40 30 23 0 31 -6 40 -30 5 -16 15 -30 20 -30 6 0 11 1 11 3 0 5 -30 99 -42
130 -10 27 -31 36 -43 17z m32 -76 c-3 -3 -14 -4 -25 -2 -20 3 -20 5 -5 38
l16 35 10 -33 c5 -18 7 -35 4 -38z"/>
<path d="M4470 2580 c0 -79 8 -89 63 -73 35 10 48 43 27 69 -10 11 -10 17 0
29 19 23 -5 45 -51 45 l-39 0 0 -70z m75 51 c6 -10 -21 -41 -36 -41 -5 0 -9
11 -9 25 0 18 5 25 19 25 11 0 22 -4 26 -9z m0 -80 c0 -15 -8 -27 -22 -32 -21
-8 -23 -5 -23 27 0 31 3 35 23 32 16 -2 22 -10 22 -27z"/>
<path d="M4612 2578 c2 -40 8 -73 13 -73 6 0 11 33 13 73 2 60 0 72 -13 72
-13 0 -15 -12 -13 -72z"/>
<path d="M5180 2575 c0 -43 4 -75 10 -75 6 0 10 18 10 40 0 22 3 40 8 40 4 0
17 -18 30 -40 12 -22 29 -40 38 -40 16 0 14 6 -18 52 -22 31 -22 38 -4 38 19
0 29 30 15 46 -6 8 -29 14 -50 14 l-39 0 0 -75z m70 46 c0 -20 -25 -35 -41
-25 -5 3 -9 14 -9 25 0 14 7 19 25 19 18 0 25 -5 25 -19z"/>
<path d="M5480 2576 c0 -94 18 -101 22 -8 l3 67 35 -65 c19 -36 43 -66 53 -68
15 -3 17 6 17 72 0 44 -4 76 -10 76 -6 0 -10 -26 -10 -57 l0 -58 -33 55 c-22
36 -41 56 -55 58 -21 3 -22 0 -22 -72z"/>
<path d="M4331 2372 c-35 -17 -59 -51 -28 -39 10 4 1 -25 -29 -87 -54 -115
-63 -153 -39 -163 25 -9 98 32 137 75 38 44 78 128 78 165 0 33 -32 67 -62 67
-13 0 -38 -8 -57 -18z m87 -14 c7 -7 12 -22 12 -33 0 -40 -60 -143 -107 -185
-90 -79 -94 -42 -13 127 41 88 52 103 72 103 13 0 29 -5 36 -12z"/>
<path d="M5894 2316 c-9 -15 -14 -29 -11 -32 3 -3 13 6 23 20 9 15 14 29 11
32 -3 3 -13 -6 -23 -20z"/>
<path d="M4842 2318 c-14 -14 -16 -38 -2 -38 9 0 30 31 30 44 0 10 -15 7 -28
-6z"/>
<path d="M5759 2301 c-12 -17 -31 -34 -42 -37 -10 -3 -16 -12 -13 -19 3 -8 -2
-35 -10 -60 -17 -49 -13 -75 11 -75 18 0 65 47 65 64 -1 6 -12 -2 -25 -19 -18
-22 -27 -27 -36 -18 -8 8 -5 25 14 66 20 45 31 56 56 62 17 4 31 11 31 16 0 6
-9 7 -21 4 -19 -6 -20 -5 -9 15 18 34 4 35 -21 1z"/>
<path d="M4580 2247 c-27 -14 -40 -61 -21 -80 6 -6 11 -19 11 -30 0 -27 -33
-17 -41 13 -6 23 -7 23 -14 6 -17 -39 38 -74 65 -41 11 13 11 23 0 55 -14 42
-3 70 26 70 21 0 17 -21 -6 -27 -23 -6 -27 -23 -5 -23 20 0 57 38 52 53 -5 17
-38 19 -67 4z"/>
<path d="M4700 2247 c-27 -14 -40 -61 -21 -80 6 -6 11 -19 11 -30 0 -27 -33
-17 -41 13 -6 23 -7 23 -14 6 -17 -39 38 -74 65 -41 11 13 11 23 0 55 -14 42
-3 70 26 70 21 0 17 -21 -6 -27 -23 -6 -27 -23 -5 -23 20 0 57 38 52 53 -5 17
-38 19 -67 4z"/>
<path d="M5140 2247 c-27 -14 -40 -61 -21 -80 6 -6 11 -19 11 -30 0 -27 -33
-17 -41 13 -6 23 -7 23 -14 6 -17 -39 38 -74 65 -41 11 13 11 23 0 55 -14 42
-3 70 26 70 21 0 17 -21 -6 -27 -23 -6 -27 -23 -5 -23 20 0 57 38 52 53 -5 17
-38 19 -67 4z"/>
<path d="M5370 2247 c-27 -14 -40 -61 -21 -80 6 -6 11 -19 11 -30 0 -27 -33
-17 -41 13 -6 23 -7 23 -14 6 -17 -39 38 -74 65 -41 11 13 11 23 0 55 -14 42
-3 70 26 70 21 0 17 -21 -6 -27 -23 -6 -27 -23 -5 -23 20 0 57 38 52 53 -5 17
-38 19 -67 4z"/>
<path d="M4465 2228 c-27 -24 -56 -93 -48 -115 13 -33 64 3 89 63 29 70 10 95
-41 52z m35 -6 c0 -17 -41 -92 -50 -92 -17 0 -11 41 11 71 19 28 39 38 39 21z"/>
<path d="M4849 2219 c-54 -58 -46 -119 13 -104 26 7 90 65 72 65 -6 0 -21 -11
-34 -25 -24 -26 -54 -33 -65 -15 -3 6 5 14 18 19 29 11 57 47 57 73 0 28 -29
21 -61 -13z m32 -17 c-6 -11 -18 -22 -26 -26 -18 -6 -13 6 13 37 19 22 27 15
13 -11z"/>
<path d="M5020 2221 c-19 -14 -29 -18 -21 -8 17 21 7 35 -13 18 -17 -14 -59
-108 -54 -122 2 -6 18 11 36 36 27 39 35 45 48 34 16 -13 64 2 64 21 0 8 -6 7
-20 0 -15 -8 -20 -8 -20 3 0 7 5 18 12 25 24 24 2 19 -32 -7z"/>
<path d="M5470 2222 c-31 -31 -46 -72 -36 -97 7 -19 21 -19 38 -2 10 12 15 10
29 -7 10 -12 21 -17 25 -13 5 4 2 12 -6 17 -12 7 -12 15 0 52 8 24 14 50 14
58 2 26 -33 22 -64 -8z m50 3 c0 -13 -51 -85 -60 -85 -17 0 -11 30 11 61 17
25 49 40 49 24z"/>
<path d="M5810 2220 c-77 -82 -16 -153 64 -74 35 36 24 45 -12 11 -28 -27 -56
-35 -67 -18 -3 5 4 12 15 16 25 8 60 52 60 76 0 28 -28 23 -60 -11z m37 -14
c-3 -8 -16 -20 -28 -26 -17 -10 -20 -9 -14 2 24 41 55 59 42 24z"/>
<path d="M4793 2213 c-26 -37 -46 -89 -41 -104 2 -7 19 18 36 56 35 73 37 94
5 48z"/>
<path d="M5573 2206 c-12 -19 -25 -47 -29 -63 -6 -27 -5 -27 30 12 l35 40 -9
-33 c-9 -35 -4 -62 12 -62 5 0 6 9 3 20 -4 13 3 37 19 67 15 25 24 48 22 50
-2 3 -16 -3 -30 -12 -24 -16 -26 -16 -20 -1 11 29 -10 17 -33 -18z"/>
</g>
</svg>
